<svg width="16" height="16" viewBox="0 0 16 16" fill="none" xmlns="http://www.w3.org/2000/svg">
<g clip-path="url(#clip0_617_62)">
<path d="M16 8C16 3.58172 12.4183 0 8 0C3.58172 0 0 3.58172 0 8C0 12.4183 3.58172 16 8 16C12.4183 16 16 12.4183 16 8Z" fill="#00143D"/>
<mask id="mask0_617_62" style="mask-type:luminance" maskUnits="userSpaceOnUse" x="2" y="2" width="12" height="13">
<path d="M14 2H2V14.0877H14V2Z" fill="white"/>
</mask>
<g mask="url(#mask0_617_62)">
<path d="M13.7559 6.91036H12.8746C12.75 6.36196 12.5351 5.83851 12.239 5.36161L12.8596 4.73643C12.8823 4.71362 12.9003 4.68654 12.9125 4.65672C12.9248 4.62691 12.9311 4.59494 12.9311 4.56266C12.9311 4.53038 12.9248 4.49844 12.9125 4.46862C12.9003 4.43881 12.8823 4.41172 12.8596 4.38891L11.6221 3.14614C11.5995 3.1233 11.5726 3.10517 11.543 3.09282C11.5134 3.08044 11.4817 3.07408 11.4496 3.07408C11.4176 3.07408 11.3858 3.08044 11.3562 3.09282C11.3266 3.10517 11.2997 3.1233 11.2771 3.14614L10.6565 3.7713C10.1845 3.47454 9.66675 3.25882 9.1246 3.13291V2.24522C9.1246 2.2125 9.1181 2.1801 9.1055 2.14993C9.0929 2.11978 9.07445 2.09245 9.0512 2.06957C9.02795 2.04669 9.00045 2.02874 8.9702 2.01674C8.94 2.00474 8.9077 1.99895 8.8752 1.99968H7.12395C7.0915 1.99895 7.05915 2.00474 7.02895 2.01674C6.9987 2.02874 6.9712 2.04669 6.94795 2.06957C6.9247 2.09245 6.90625 2.11978 6.89365 2.14993C6.88105 2.1801 6.87455 2.2125 6.8746 2.24522V3.13291C6.3302 3.25846 5.81055 3.47488 5.3371 3.7732L4.72208 3.14614C4.69944 3.1233 4.67255 3.10517 4.64295 3.09282C4.61335 3.08044 4.58161 3.07408 4.54959 3.07408C4.51755 3.07408 4.48581 3.08044 4.45621 3.09282C4.42661 3.10517 4.39973 3.1233 4.37708 3.14614L3.1377 4.39457C3.11504 4.41738 3.09704 4.44447 3.08477 4.47429C3.07248 4.5041 3.06617 4.53607 3.06617 4.56835C3.06617 4.6006 3.07248 4.63257 3.08477 4.66238C3.09704 4.6922 3.11504 4.71929 3.1377 4.7421L3.75833 5.36726C3.46341 5.84256 3.24924 6.36406 3.12457 6.91036H2.24333C2.21084 6.91031 2.17868 6.91686 2.14873 6.92956C2.11879 6.94226 2.09166 6.96086 2.06895 6.98421C2.04624 7.00766 2.02841 7.03536 2.0165 7.06581C2.00459 7.09626 1.99884 7.12881 1.99957 7.16151V8.92561C1.99884 8.95831 2.00459 8.99086 2.0165 9.02126C2.02841 9.05171 2.04624 9.07946 2.06895 9.10286C2.09166 9.12626 2.11879 9.14486 2.14873 9.15756C2.17868 9.17026 2.21084 9.17681 2.24333 9.17681H3.12457C3.24921 9.72511 3.46406 10.2486 3.76021 10.7255L3.1377 11.345C3.11504 11.3678 3.09704 11.3949 3.08477 11.4247C3.07248 11.4546 3.06617 11.4865 3.06617 11.5188C3.06617 11.5511 3.07248 11.583 3.08477 11.6128C3.09704 11.6427 3.11504 11.6697 3.1377 11.6925L4.37708 12.941C4.39973 12.9638 4.42661 12.9819 4.45621 12.9943C4.48581 13.0067 4.51755 13.013 4.54959 13.013C4.58161 13.013 4.61335 13.0067 4.64295 12.9943C4.67255 12.9819 4.69944 12.9638 4.72208 12.941L5.3427 12.3158C5.81455 12.6129 6.3323 12.8286 6.8746 12.9542V13.8419C6.8746 13.907 6.90025 13.9695 6.94595 14.0155C6.9917 14.0616 7.0537 14.0874 7.1183 14.0874H8.8696C8.9025 14.089 8.93545 14.0837 8.9663 14.0721C8.9972 14.0604 9.0254 14.0426 9.04925 14.0196C9.0731 13.9967 9.09205 13.9691 9.105 13.9386C9.11795 13.908 9.1246 13.8751 9.1246 13.8419V12.9542C9.66895 12.8287 10.1886 12.6122 10.6621 12.3139L11.2827 12.9391C11.3053 12.962 11.3321 12.9802 11.3618 12.9926C11.3914 13.0049 11.4232 13.0111 11.4552 13.0109C11.4873 13.0113 11.5191 13.0052 11.5488 12.9929C11.5785 12.9805 11.6053 12.9622 11.6277 12.9391L12.8671 11.6907C12.8898 11.6679 12.9078 11.6408 12.92 11.611C12.9323 11.5811 12.9386 11.5492 12.9386 11.5169C12.9386 11.4846 12.9323 11.4527 12.92 11.4228C12.9078 11.393 12.8898 11.3659 12.8671 11.3431L12.2465 10.718C12.5392 10.2429 12.7515 9.72201 12.8746 9.17681H13.7559C13.8205 9.17681 13.8825 9.15091 13.9282 9.10486C13.9739 9.05881 13.9996 8.99636 13.9996 8.93126V7.16151C14.0003 7.12881 13.9946 7.09626 13.9827 7.06581C13.9708 7.03536 13.9529 7.00766 13.9302 6.98421C13.9075 6.96086 13.8804 6.94226 13.8505 6.92956C13.8205 6.91686 13.7883 6.91031 13.7559 6.91036ZM13.6359 8.79906H12.779C12.7239 8.79881 12.6705 8.81736 12.6272 8.85166C12.584 8.88596 12.5535 8.93396 12.5409 8.98791C12.4236 9.55821 12.2003 10.101 11.8827 10.5877C11.8518 10.6347 11.8381 10.6912 11.8439 10.7473C11.8497 10.8035 11.8747 10.8559 11.9146 10.8955L12.5202 11.5056L11.4496 12.5972L10.844 11.9872C10.8044 11.9473 10.7525 11.9223 10.6968 11.9165C10.6412 11.9107 10.5852 11.9243 10.5383 11.9551C10.0552 12.275 9.51635 12.4999 8.9502 12.618C8.89665 12.6308 8.849 12.6615 8.81495 12.705C8.7809 12.7486 8.7625 12.8024 8.7627 12.8579V13.721H7.2496V12.8579C7.2498 12.8024 7.2314 12.7486 7.19735 12.705C7.1633 12.6615 7.11565 12.6308 7.0621 12.618C6.4959 12.4999 5.9571 12.275 5.47395 11.9551C5.4271 11.9243 5.37115 11.9107 5.3155 11.9165C5.25985 11.9223 5.2079 11.9473 5.1683 11.9872L4.54959 12.5972L3.47895 11.5188L4.08457 10.9087C4.12417 10.8689 4.14895 10.8166 4.15475 10.7605C4.16055 10.7044 4.14704 10.6481 4.11646 10.6009C3.79886 10.1142 3.57555 9.57141 3.45833 9.00116C3.44564 8.94721 3.41519 8.89916 3.37195 8.86486C3.32873 8.83061 3.27524 8.81201 3.22022 8.81226H2.36333V7.28806H3.22022C3.27524 7.28826 3.32873 7.26976 3.37195 7.23546C3.41519 7.20116 3.44564 7.15316 3.45833 7.09921C3.57555 6.52891 3.79886 5.98611 4.11646 5.49946C4.14704 5.45226 4.16055 5.39591 4.15475 5.33981C4.14895 5.28376 4.12417 5.23146 4.08457 5.19161L3.47895 4.56835L4.54959 3.48988L5.1552 4.09993C5.1949 4.1395 5.24685 4.16424 5.3024 4.17008C5.35795 4.17592 5.41385 4.16249 5.46085 4.13205C5.94445 3.81179 6.484 3.58682 7.05085 3.4691C7.1042 3.45601 7.1517 3.42527 7.1857 3.38178C7.2197 3.33829 7.2382 3.28459 7.2383 3.22925V2.3661H8.7496V3.22925C8.7497 3.28459 8.76825 3.33829 8.8022 3.38178C8.8362 3.42527 8.8837 3.45601 8.9371 3.4691C9.5037 3.58754 10.0431 3.81244 10.5271 4.13205C10.5734 4.16341 10.6292 4.17738 10.6848 4.17151C10.7403 4.16562 10.792 4.14031 10.8309 4.09993L11.4496 3.48988L12.5202 4.56835L11.9146 5.17841C11.8747 5.21806 11.8497 5.27041 11.8439 5.32656C11.8381 5.38271 11.8518 5.43916 11.8827 5.48626C12.2003 5.97291 12.4236 6.51571 12.5409 7.08596C12.5535 7.13991 12.584 7.18791 12.6272 7.22221C12.6705 7.25651 12.7239 7.27506 12.779 7.27486H13.6359V8.79906Z" fill="white"/>
<path d="M7.99983 4.16823C7.23888 4.16823 6.49498 4.39554 5.86228 4.82139C5.22958 5.24726 4.73642 5.85256 4.44522 6.56071C4.154 7.26891 4.07782 8.04816 4.22627 8.79996C4.37474 9.55176 4.74118 10.2423 5.27923 10.7844C5.81733 11.3264 6.50288 11.6955 7.24923 11.845C7.99558 11.9946 8.76918 11.9178 9.47223 11.6245C10.1753 11.3312 10.7762 10.8344 11.1989 10.1971C11.6217 9.55971 11.8473 8.81041 11.8473 8.04386C11.8459 7.01646 11.44 6.03151 10.7188 5.30506C9.99758 4.57854 9.01978 4.16973 7.99983 4.16823ZM7.38108 11.4927V9.70406C7.38048 9.67001 7.37078 9.63676 7.35293 9.60786C7.33513 9.57891 7.30988 9.55536 7.27983 9.53971C7.02488 9.41086 6.80793 9.21681 6.65078 8.97701C6.49358 8.73721 6.40168 8.46001 6.38418 8.17321C6.36673 7.88636 6.42433 7.59996 6.55123 7.34261C6.67818 7.08526 6.86993 6.86596 7.10733 6.70666V7.75491C7.11198 7.84081 7.14848 7.92186 7.20958 7.98201C7.27068 8.04216 7.35198 8.07706 7.43738 8.07976H8.56233C8.60673 8.08026 8.65078 8.07181 8.69183 8.05486C8.73288 8.03796 8.77018 8.01291 8.80148 7.98121C8.83278 7.94951 8.85743 7.91181 8.87398 7.87036C8.89058 7.82886 8.89873 7.78446 8.89798 7.73981V6.69721C9.13868 6.85556 9.33348 7.07526 9.46263 7.33396C9.59178 7.59266 9.65068 7.88121 9.63338 8.17026C9.61603 8.45931 9.52308 8.73861 9.36398 8.97981C9.20483 9.22101 8.98523 9.41546 8.72738 9.54351C8.69733 9.55916 8.67208 9.58266 8.65428 9.61161C8.63643 9.64056 8.62673 9.67376 8.62608 9.70781V11.4945C8.42258 11.5323 8.21618 11.5519 8.00923 11.5531C7.79843 11.5528 7.58813 11.5326 7.38108 11.4927ZM8.98048 11.4077V9.81736C9.30298 9.63271 9.56783 9.36091 9.74523 9.03271C9.92263 8.70451 10.0054 8.33291 9.98438 7.95981C9.96333 7.58671 9.83923 7.22696 9.62608 6.92111C9.41293 6.61526 9.11918 6.37551 8.77798 6.22881C8.75038 6.21751 8.72053 6.21296 8.69083 6.21561C8.66118 6.21826 8.63258 6.22791 8.60738 6.24396C8.58243 6.26086 8.56193 6.28366 8.54758 6.31031C8.53318 6.33691 8.52538 6.36661 8.52483 6.39691V7.71901H7.47108V6.39691C7.46973 6.36716 7.46138 6.33816 7.44678 6.31226C7.43218 6.28641 7.41168 6.26436 7.38698 6.24801C7.36233 6.23156 7.33413 6.22131 7.30478 6.21796C7.27538 6.21466 7.24563 6.21836 7.21798 6.22881C6.87688 6.37571 6.58328 6.61566 6.37028 6.92161C6.15733 7.22751 6.03343 7.58731 6.01258 7.96041C5.99168 8.33346 6.07473 8.70501 6.25223 9.03311C6.42978 9.36121 6.69478 9.63286 7.01733 9.81736V11.4115C6.21273 11.1736 5.52023 10.6515 5.06678 9.94096C4.61338 9.23041 4.42945 8.37906 4.54874 7.54296C4.668 6.70686 5.08253 5.94216 5.71623 5.38896C6.34993 4.83581 7.16038 4.53131 7.99893 4.53131C8.83743 4.53131 9.64788 4.83581 10.2816 5.38896C10.9153 5.94216 11.3298 6.70686 11.4491 7.54296C11.5684 8.37906 11.3844 9.23041 10.931 9.94096C10.4776 10.6515 9.78508 11.1736 8.98048 11.4115V11.4077Z" fill="white"/>
</g>
</g>
<defs>
<clipPath id="clip0_617_62">
<rect width="16" height="16" fill="white"/>
</clipPath>
</defs>
</svg>
